<svg id="Layer_1" data-name="Layer 1" xmlns="http://www.w3.org/2000/svg" xmlns:xlink="http://www.w3.org/1999/xlink" viewBox="0 0 369.67 90.72"><defs><style>.cls-1{fill:none;}.cls-2{clip-path:url(#clip-path);}.cls-3{fill:#004a94;}.cls-4{clip-path:url(#clip-path-2);}.cls-5{fill:url(#linear-gradient);}.cls-6{clip-path:url(#clip-path-3);}.cls-7{fill:url(#linear-gradient-2);}.cls-8{clip-path:url(#clip-path-4);}.cls-9{fill:url(#linear-gradient-3);}.cls-10{clip-path:url(#clip-path-5);}.cls-11{clip-path:url(#clip-path-6);}.cls-12{clip-path:url(#clip-path-7);}.cls-13{clip-path:url(#clip-path-8);}.cls-14{fill:url(#linear-gradient-7);}.cls-15{clip-path:url(#clip-path-9);}.cls-16{fill:url(#linear-gradient-8);}.cls-17{clip-path:url(#clip-path-10);}.cls-18{fill:url(#linear-gradient-9);}.cls-19{clip-path:url(#clip-path-11);}.cls-20{clip-path:url(#clip-path-12);}.cls-21{fill:url(#linear-gradient-11);}</style><clipPath id="clip-path"><rect class="cls-1" x="3.83" y="3.45" width="362" height="83.82"/></clipPath><clipPath id="clip-path-2"><path class="cls-1" d="M4.75,20.7A9.6,9.6,0,0,0,8,28.37a26.32,26.32,0,0,0,9.6,4.76l4.87,1.47c5.38,1.67,7.34,2.91,7.34,6.37,0,4.34-3.13,6.69-9,6.69A54.4,54.4,0,0,1,9.38,46.09L5.7,45.31,3.83,50.24a37.9,37.9,0,0,0,17,4.28c10.94,0,16.45-5.91,16.45-13.62,0-8.13-5.68-11.06-14-13.58l-3.89-1.14c-4.83-1.44-7.28-2.74-7.28-5.61,0-3.5,3.3-4.81,9.53-4.81,2.09,0,5.72.3,9.63.73l2.94.32,1.21-5.19a41,41,0,0,0-14.3-2.74c-9.5,0-16.32,4.34-16.32,11.82"/></clipPath><linearGradient id="linear-gradient" x1="58.89" y1="849.55" x2="61.23" y2="849.55" gradientTransform="matrix(154.24, 0, 0, -154.24, -9080.43, 131067.36)" gradientUnits="userSpaceOnUse"><stop offset="0" stop-color="#00b4e1"/><stop offset="1" stop-color="#004a94"/></linearGradient><clipPath id="clip-path-3"><path class="cls-1" d="M50.57,26.94a7.48,7.48,0,0,1,5.88-2.26h.07a7.22,7.22,0,0,1,5.8,2.26,9.08,9.08,0,0,1,2.22,5.52H48.29a9.64,9.64,0,0,1,2.28-5.52m5.81-9.53c-8.71,0-15.9,7.35-15.9,18.49,0,10.39,6.21,18.49,16.23,18.49h.2c5.19,0,10.44-2.44,14.46-6.17L68.89,43.6c-3.42,1.55-7.5,3.48-11.36,3.48-5.23,0-8.56-2.27-9.31-8.6H70.68c.75,0,1-.14,1.21-.9a20.19,20.19,0,0,0,.26-3c0-9.49-6.53-17.16-15.63-17.16Z"/></clipPath><linearGradient id="linear-gradient-2" x1="58.89" y1="849.53" x2="61.23" y2="849.53" gradientTransform="matrix(154.24, 0, 0, -154.24, -9080.43, 131069.16)" xlink:href="#linear-gradient"/><clipPath id="clip-path-4"><path class="cls-1" d="M93.3,17.41a15.27,15.27,0,0,0-7.84,2.44L83.53,21l-1.07-3H76.78V53.81h7.54V27.91A1.28,1.28,0,0,1,85,26.66a17.27,17.27,0,0,1,7.09-1.4h.13c2.22,0,4.08.35,5.16,1.47,1,.89,1.46,2.47,1.46,4.76V53.81h7.55V30.92c0-3.91-1-7.06-3.14-9.39a12.89,12.89,0,0,0-9.89-4.12Z"/></clipPath><linearGradient id="linear-gradient-3" x1="58.89" y1="849.54" x2="61.23" y2="849.54" gradientTransform="matrix(154.24, 0, 0, -154.24, -9080.43, 131069.03)" xlink:href="#linear-gradient"/><clipPath id="clip-path-5"><path class="cls-1" d="M110.88,27.41c0,5.55,3.4,8.53,10.09,10.5l4,1.14c4,1.18,5.28,2.22,5.28,4.19,0,2.84-2.48,4.2-6.3,4.2a50.9,50.9,0,0,1-9-1.26l-2.87-.57-1.6,5a27.69,27.69,0,0,0,6.5,2.69,28.62,28.62,0,0,0,7.47,1c4,0,7.18-1,9.44-3.09A10.62,10.62,0,0,0,137.29,43c0-6.38-3.56-8.74-10.64-10.93l-4.21-1.25c-3.14-1-4.67-1.76-4.67-3.52,0-2,1.73-2.93,6.33-2.93a59.23,59.23,0,0,1,7.45.57l3.26.43L136,20a29,29,0,0,0-11.79-2.58c-7.9,0-13.35,3.62-13.35,10"/></clipPath><clipPath id="clip-path-6"><path class="cls-1" d="M147.72,35.9c0-6.63,2.54-10.71,8.71-10.71s8.7,4.08,8.7,10.71-2.54,10.71-8.7,10.71-8.71-4.08-8.71-10.71m8.56-18.49c-8.36,0-16.29,6.41-16.29,18.49s7.93,18.49,16.29,18.49h.26c8.43,0,16.33-6.35,16.33-18.49s-7.94-18.49-16.33-18.49Z"/></clipPath><clipPath id="clip-path-7"><path class="cls-1" d="M184.32,22.11,183,18h-5.62V53.81h7.54V28.41a1.12,1.12,0,0,1,.75-1.15A54.07,54.07,0,0,1,196.06,24l1.9-5.51a11,11,0,0,0-4-1c-2.22,0-5.29,1.44-9.63,4.7"/></clipPath><clipPath id="clip-path-8"><path class="cls-1" d="M267.35,42a4,4,0,0,1,.65-2.47,2.66,2.66,0,0,1,2.29-.9h10.15c.75,0,.88.18.88.75v5.06c0,.46-.13.78-.81,1.18a20.27,20.27,0,0,1-7.35,1.68c-3.92,0-5.81-2.29-5.81-5.3m-5.14-19.26,1.87,4.89,3.34-1.18a25.63,25.63,0,0,1,7.9-1.54c5.59-.09,6,3.83,6,5.66v2.8a48.19,48.19,0,0,0-9.82-1c-7.42,0-11.5,3.79-11.5,10,0,6.7,4.87,12.11,11.82,12.11a16.44,16.44,0,0,0,8.69-2.69l1.63-1A6.27,6.27,0,0,0,287.52,54a14.78,14.78,0,0,0,5.62-1.47V48l-4.28-.86V30.85c0-9.93-6.46-13.44-13-13.44a21,21,0,0,0-13.63,5.32m-31.44,4.61c-2,6.4-2.53,10.85-4.81,10.85s-2.88-4.45-4.9-10.85c-2.39-7.55-5.38-10.21-10.2-10.21-3.22,0-8,.85-10.57,10.9-5,19.33-6.27,25.72-6.27,25.75L194,54l7.85,0,0-.15c0-.07,3.33-14.62,4.95-21.76,1-4.46,1.49-8.17,4-8.17,2.16,0,2.71,5.19,4.91,11.52,2.94,8.47,8.47,8.53,10.2,8.53s7.27-.06,10.21-8.53c2.19-6.33,2.74-11.52,4.91-11.52,2.51,0,3,3.71,4,8.17,1.61,7.14,4.93,21.69,4.94,21.76l0,.15,7.85,0,0-.2s-1.26-6.42-6.27-25.75c-2.61-10-7.36-10.9-10.58-10.9-4.81,0-7.81,2.66-10.19,10.21"/></clipPath><linearGradient id="linear-gradient-7" x1="58.89" y1="849.53" x2="61.23" y2="849.53" gradientTransform="matrix(154.24, 0, 0, -154.24, -9080.43, 131069.1)" xlink:href="#linear-gradient"/><clipPath id="clip-path-9"><path class="cls-1" d="M298,7.67V18.09l-5.81,1.22v5.16H298V42.6c0,4,.94,7.06,2.8,9a9.72,9.72,0,0,0,7.35,2.83,14.68,14.68,0,0,0,5.59-1.26A21,21,0,0,0,318.91,50l-1.79-4.65-3,.82a22.48,22.48,0,0,1-4.63.83c-3.21,0-3.92-2-3.92-4.27V24.47h11.07V18H305.56V7.67Z"/></clipPath><linearGradient id="linear-gradient-8" x1="58.89" y1="849.55" x2="61.23" y2="849.55" gradientTransform="matrix(154.24, 0, 0, -154.24, -9080.43, 131067.07)" xlink:href="#linear-gradient"/><clipPath id="clip-path-10"><rect class="cls-1" x="322.66" y="18.02" width="7.54" height="35.79"/></clipPath><linearGradient id="linear-gradient-9" x1="58.89" y1="849.53" x2="61.23" y2="849.53" gradientTransform="matrix(154.24, 0, 0, -154.24, -9080.43, 131069.17)" xlink:href="#linear-gradient"/><clipPath id="clip-path-11"><path class="cls-1" d="M335.31,35.75c0,11.11,6.07,18.64,15.9,18.64h.13c4.83,0,10.8-2.94,14.49-6.81l-2.45-4.48c-1.93.82-6.94,3.95-11.23,3.91-6.26-.06-9.09-3.55-9.11-11.4,0-5,1.47-10.68,7.35-10.93,4.66-.19,7.72,4,10.12,7.06l4.8-2.72A14.87,14.87,0,0,0,351,17.41c-8.72,0-15.64,7.38-15.64,18.34"/></clipPath><clipPath id="clip-path-12"><path class="cls-1" d="M326.24,3.45a4.44,4.44,0,1,0,.27,0Z"/></clipPath><linearGradient id="linear-gradient-11" x1="58.89" y1="849.64" x2="61.23" y2="849.64" gradientTransform="matrix(154.24, 0, 0, -154.24, -9080.43, 131057.15)" xlink:href="#linear-gradient"/></defs><title>sensormatic_logo</title><g class="cls-2"><path class="cls-3" d="M139.87,83.66a8.77,8.77,0,0,1-9.17-9.2c0-5.26,3.3-9.25,8.75-9.24a13.62,13.62,0,0,1,5.17,1.2l-1.08,2.67a10.48,10.48,0,0,0-4.14-1c-3.46,0-5.19,2.91-5.19,6.08,0,3.83,2,6.65,6.08,6.65a8.19,8.19,0,0,0,3.54-.84l.83,2.52a11,11,0,0,1-4.79,1.18"/><path class="cls-3" d="M151.7,72.73c-2.33,0-3.09,2.16-3.09,4.14S149.37,81,151.7,81s3.1-2.12,3.1-4.12-.76-4.14-3.1-4.14m0,11c-4,0-6.57-2.94-6.57-6.84S147.7,70,151.71,70s6.57,2.91,6.57,6.84-2.56,6.84-6.58,6.84"/><path class="cls-3" d="M168.54,83.4V75.18a2.3,2.3,0,0,0-2.6-2.41,7.68,7.68,0,0,0-2.65.57,4.63,4.63,0,0,1,.06.55V83.4h-3.14V73.16a16.5,16.5,0,0,0-.19-1.84A18.91,18.91,0,0,1,166,70c3.2,0,5.7,1,5.71,4.67V83.4Z"/><path class="cls-3" d="M178.93,83.87c-2.38,0-4-1.1-4-3.64V73l-1.49-.08V70.43l1.49-.08V66.72h3.15V70.3h3.66V73h-3.66v7c0,.82.41,1.13,1.2,1.13a7.17,7.17,0,0,0,2.33-.52l.87,2.54a10.89,10.89,0,0,1-3.52.73"/><path class="cls-3" d="M191.09,73a6.7,6.7,0,0,0-1.73-.26,7.93,7.93,0,0,0-2.36.34,2.36,2.36,0,0,1,0,.26V83.4h-3.14v-10a15.72,15.72,0,0,0-.24-2,15.91,15.91,0,0,1,6-1.44,10.18,10.18,0,0,1,2.4.29Z"/><path class="cls-3" d="M198.46,72.73c-2.33,0-3.09,2.16-3.09,4.15s.76,4.12,3.09,4.12,3.1-2.13,3.1-4.12-.76-4.14-3.1-4.15m0,11c-4,0-6.56-2.94-6.56-6.84S194.46,70,198.46,70,205,72.92,205,76.85s-2.56,6.84-6.58,6.84"/><rect class="cls-3" x="206.96" y="64.17" width="3.14" height="19.23"/><path class="cls-3" d="M216.2,83.69a12.36,12.36,0,0,1-4.32-.86l.91-2.47a8.7,8.7,0,0,0,3.15.79c1,0,2-.29,2-1.44,0-2.33-5.72-1.63-5.72-5.92,0-2.7,2.79-3.78,4.85-3.78a9.28,9.28,0,0,1,3.78.79L220,73.24a9,9,0,0,0-2.89-.6c-.78,0-1.62.23-1.62,1.18,0,2.2,6,1.2,6,5.94,0,2.91-2.83,3.93-5.22,3.93"/><path class="cls-3" d="M33.53,85.75c-.74.26-1.87.57-2.86.82l-.57-2.83a13.26,13.26,0,0,0,1.95-.47c1.81-.63,2-1.94,2-4V65.87h3.26V78.72c0,3.53-.52,5.88-3.75,7"/><path class="cls-3" d="M45.81,73c-2.33,0-3.09,2.14-3.09,4.14s.76,4.11,3.09,4.11,3.09-2.12,3.1-4.11S48.15,73,45.81,73m0,10.94c-4,0-6.57-2.93-6.57-6.83s2.56-6.84,6.57-6.84,6.58,2.9,6.58,6.84-2.57,6.83-6.58,6.83"/><path class="cls-3" d="M62.79,83.63V75.36A2.17,2.17,0,0,0,60.59,73a6.18,6.18,0,0,0-3,1v9.69H54.43V64.41h3.14v6.7a9.94,9.94,0,0,1,3.89-.86c2.93,0,4.47,1.73,4.47,4.64v8.74Z"/><path class="cls-3" d="M76.93,83.64V75.41A2.29,2.29,0,0,0,74.34,73a7.94,7.94,0,0,0-2.65.58,4.63,4.63,0,0,1,.06.55v9.51H68.61V73.39a16.23,16.23,0,0,0-.19-1.83,19,19,0,0,1,6-1.31c3.19,0,5.71,1,5.71,4.66v8.73Z"/><path class="cls-3" d="M86.22,83.93a12.42,12.42,0,0,1-4.33-.87l.92-2.46a8.91,8.91,0,0,0,3.14.79c1,0,2-.29,2-1.44,0-2.34-5.72-1.63-5.71-5.93,0-2.69,2.77-3.76,4.85-3.77a9.15,9.15,0,0,1,3.76.79L90,73.48a9,9,0,0,0-2.88-.61c-.8,0-1.63.23-1.63,1.18,0,2.2,6,1.21,6,6,0,2.9-2.83,3.93-5.21,3.93"/><path class="cls-3" d="M99.4,73c-2.33,0-3.08,2.15-3.08,4.14s.75,4.11,3.08,4.11,3.09-2.12,3.09-4.11S101.73,73,99.4,73m0,11c-4,0-6.58-2.94-6.58-6.84s2.57-6.83,6.59-6.84S106,73.16,106,77.09s-2.57,6.84-6.58,6.84"/><path class="cls-3" d="M116.36,83.64V75.42A2.3,2.3,0,0,0,113.77,73a7.94,7.94,0,0,0-2.65.58,4.62,4.62,0,0,1,.06.56v9.5H108V73.4a17.39,17.39,0,0,0-.18-1.84,18.79,18.79,0,0,1,5.93-1.31c3.2,0,5.71,1,5.71,4.67v8.72Z"/></g><g class="cls-4"><rect class="cls-5" x="3.83" y="8.88" width="33.43" height="45.64"/></g><g class="cls-6"><rect class="cls-7" x="40.48" y="17.41" width="31.67" height="36.97"/></g><g class="cls-8"><rect class="cls-9" x="76.78" y="17.41" width="29.61" height="36.4"/></g><g class="cls-10"><rect class="cls-7" x="110.49" y="17.41" width="26.8" height="36.97"/></g><g class="cls-11"><rect class="cls-7" x="139.99" y="17.41" width="32.88" height="36.97"/></g><g class="cls-12"><rect class="cls-9" x="177.36" y="17.41" width="20.6" height="36.4"/></g><g class="cls-13"><rect class="cls-14" x="193.97" y="17.13" width="99.17" height="37.26"/></g><g class="cls-15"><rect class="cls-16" x="292.18" y="7.67" width="26.74" height="46.72"/></g><g class="cls-17"><rect class="cls-18" x="322.66" y="18.02" width="7.54" height="35.79"/></g><g class="cls-19"><rect class="cls-7" x="335.31" y="17.41" width="30.53" height="36.97"/></g><g class="cls-20"><rect class="cls-21" x="321.93" y="3.45" width="8.88" height="8.87"/></g><g class="cls-2"><path class="cls-3" d="M9.53,83.87a2.82,2.82,0,0,1-2.34-1L7,83.64H5.54c0-.36.08-1.15.08-1.55V71.77H7.45v4.34a2.77,2.77,0,0,1,2.16-1c2,0,3.31,1.57,3.31,4.33s-1.38,4.38-3.39,4.38M9.2,76.62a2.28,2.28,0,0,0-1.75,1v4.17A2.15,2.15,0,0,0,9,82.42c1.23,0,2.07-.92,2.07-2.9,0-2.36-1-2.9-1.84-2.9"/><path class="cls-3" d="M18.43,84.25c-.67,2.11-2.21,2.79-4,3l-.28-1.49a2.72,2.72,0,0,0,2.46-1.65l.16-.52L13.42,75.4h2l1.44,3.75c.39,1.06.82,2.53.82,2.53l1.77-6.28h1.84Z"/></g></svg>